<svg id="Layer_1" data-name="Layer 1" xmlns="http://www.w3.org/2000/svg" viewBox="0 0 168.96 31.43"><defs><style>.cls-1{fill:#b41e4c;}.cls-2{fill:#606161;}</style></defs><title>logo</title><path class="cls-1" d="M18.22,22.5a12.88,12.88,0,0,1-1.14,6c-1.42,2.6-4.1,3.9-8.07,3.9a9.4,9.4,0,0,1-5.85-1.85Q.73,28.68.73,23.93V21.75H4.61v2.18a5.48,5.48,0,0,0,1.11,3.74,4.37,4.37,0,0,0,3.46,1.26c2.21,0,3.65-.76,4.33-2.26a14.88,14.88,0,0,0,.62-5.25V1.1h4.09Z" transform="translate(-0.73 -1)"/><path class="cls-1" d="M40.09,11.58C42.05,13.49,43,16.29,43,20a14.51,14.51,0,0,1-2.59,8.87c-1.73,2.34-4.42,3.5-8.06,3.5a9.07,9.07,0,0,1-7.23-3.1A12.25,12.25,0,0,1,22.47,21q0-5.6,2.82-8.91a9.44,9.44,0,0,1,7.59-3.32A10,10,0,0,1,40.09,11.58ZM37.77,26.35a14.11,14.11,0,0,0,1.36-6.25,11.34,11.34,0,0,0-1-5.06A5.53,5.53,0,0,0,32.77,12a5.28,5.28,0,0,0-4.92,2.61,12.16,12.16,0,0,0-1.54,6.3,10.55,10.55,0,0,0,1.54,5.9,5.38,5.38,0,0,0,4.88,2.37Q36.41,29.16,37.77,26.35Z" transform="translate(-0.73 -1)"/><path class="cls-1" d="M47.31,1h3.63V12.06a8.18,8.18,0,0,1,6.64-3.28,8.7,8.7,0,0,1,6.76,2.85c1.73,1.91,2.6,4.71,2.6,8.42a14.42,14.42,0,0,1-2.56,8.75,8.32,8.32,0,0,1-7.11,3.49A7.35,7.35,0,0,1,53,31.07a10.47,10.47,0,0,1-2.23-2.33v2.84H47.31ZM61.59,26.58a11.77,11.77,0,0,0,1.51-6.35,10.39,10.39,0,0,0-1.51-5.81,5,5,0,0,0-4.45-2.3A6.2,6.2,0,0,0,52.66,14q-1.94,1.89-1.93,6.22a13.9,13.9,0,0,0,.79,5.09A5.47,5.47,0,0,0,57,29,5,5,0,0,0,61.59,26.58Z" transform="translate(-0.73 -1)"/><path class="cls-2" d="M75,9.36V24.11a6.33,6.33,0,0,0,.52,2.78,3.66,3.66,0,0,0,3.62,2A5.11,5.11,0,0,0,84.3,25.4a14.09,14.09,0,0,0,.75-5.12V9.36h3.74V31.58H85.26l0-3.27a7.59,7.59,0,0,1-6.86,3.88q-4.66,0-6.35-3.18a9.48,9.48,0,0,1-.92-4.54V9.36Z" transform="translate(-0.73 -1)"/><path class="cls-2" d="M97.11,24.61a5.38,5.38,0,0,0,1,2.87c1,1.2,2.62,1.8,5,1.8a7.48,7.48,0,0,0,3.72-.9,3,3,0,0,0,1.61-2.79,2.39,2.39,0,0,0-1.28-2.18,15,15,0,0,0-3.25-1.06l-3-.75A15.05,15.05,0,0,1,96.58,20a4.7,4.7,0,0,1-2.44-4.19,6.38,6.38,0,0,1,2.3-5.11,9.28,9.28,0,0,1,6.19-2c3.4,0,5.84,1,7.34,3a6.3,6.3,0,0,1,1.37,4h-3.53a4.2,4.2,0,0,0-.91-2.29Q105.58,12,102.33,12a5.63,5.63,0,0,0-3.28.8,2.52,2.52,0,0,0-1.11,2.13,2.6,2.6,0,0,0,1.46,2.32,9,9,0,0,0,2.5.91l2.51.6a19.58,19.58,0,0,1,5.5,1.89,5,5,0,0,1,2.18,4.5,6.83,6.83,0,0,1-2.28,5.13q-2.28,2.14-7,2.15-5,0-7.11-2.25a8.41,8.41,0,0,1-2.23-5.57Z" transform="translate(-0.73 -1)"/><path class="cls-2" d="M116.88,3.16h3.78v6.2h3.54v3.05h-3.54V26.92a1.57,1.57,0,0,0,.78,1.55,3.41,3.41,0,0,0,1.46.23h.58c.21,0,.45,0,.72-.07v3a7.29,7.29,0,0,1-1.33.27,11.91,11.91,0,0,1-1.51.09c-1.74,0-2.92-.45-3.55-1.34a6,6,0,0,1-.93-3.48V12.41h-3V9.36h3Z" transform="translate(-0.73 -1)"/><path class="cls-2" d="M139.85,18.14a2,2,0,0,0,1.72-1.08,3.24,3.24,0,0,0,.25-1.44,3,3,0,0,0-1.36-2.78,7.18,7.18,0,0,0-3.88-.86c-2,0-3.33.52-4.14,1.58a5.23,5.23,0,0,0-.89,2.61h-3.49q.1-4.13,2.67-5.73a10.83,10.83,0,0,1,5.93-1.62,12,12,0,0,1,6.37,1.5A5.06,5.06,0,0,1,145.45,15V27.77a1.62,1.62,0,0,0,.24.93c.16.24.49.35,1,.35l.56,0,.66-.09v2.76a10.91,10.91,0,0,1-1.33.31,10,10,0,0,1-1.24.06,3.07,3.07,0,0,1-2.8-1.37,5.26,5.26,0,0,1-.65-2.05,9.48,9.48,0,0,1-3.28,2.59,10.14,10.14,0,0,1-4.7,1.1,7,7,0,0,1-5.06-1.87,6.26,6.26,0,0,1-2-4.7A6,6,0,0,1,128.83,21a9.22,9.22,0,0,1,5.06-2.09ZM132,28.22a4.33,4.33,0,0,0,2.8.94,8.61,8.61,0,0,0,3.81-.91,5.14,5.14,0,0,0,3.12-5v-3A6.76,6.76,0,0,1,140,21a15.21,15.21,0,0,1-2.12.41l-2.25.29a8.8,8.8,0,0,0-3.05.85,3.31,3.31,0,0,0-1.74,3.11A3.06,3.06,0,0,0,132,28.22Z" transform="translate(-0.73 -1)"/><path class="cls-2" d="M151.57,9.36h3.55v3.16a10.07,10.07,0,0,1,3.34-2.81,9,9,0,0,1,3.92-.85q4.74,0,6.39,3.3a11.72,11.72,0,0,1,.92,5.17V31.58h-3.8v-14a7.6,7.6,0,0,0-.6-3.28,3.66,3.66,0,0,0-3.61-2.07,7.73,7.73,0,0,0-2.18.26,5.68,5.68,0,0,0-2.7,1.83,5.42,5.42,0,0,0-1.21,2.27,15.09,15.09,0,0,0-.28,3.35V31.58h-3.74Z" transform="translate(-0.73 -1)"/><rect class="cls-1" x="100.9" y="-6.49" width="3.6" height="18.58" transform="translate(99.17 104.5) rotate(-90)"/></svg>