<svg height="512" viewBox="0 0 64 64" width="512" xmlns="http://www.w3.org/2000/svg">
<g id="shopping_marketing" data-name="shopping marketing"><path d="m50 6h8v2h-8z"/><path d="m44 6h4v2h-4z"/><path d="m54 10h4v2h-4z"/><path d="m44 10h8v2h-8z"/><path d="m44 14h14v2h-14z"/><path d="m12 30h8v2h-8z"/><path d="m13 23a1 1 0 0 0 -1 1v4h2v-3h8a10 10 0 1 0 19.539-3h10.461a1 1 0 0 0 1-1v-3h-2v2h-10.353a9.991 9.991 0 0 0 -18.447 3zm25.235-3h-3.235v2h4.411a7.945 7.945 0 0 1 .589 3h-7v-7.931a7.994 7.994 0 0 1 5.235 2.931zm-7.235-2.931v8.931a1 1 0 0 0 1 1h7.737a7.995 7.995 0 0 1 -15.737-2h5v-2h-4.737a8.012 8.012 0 0 1 6.737-5.931z"/><path d="m31 45h2v2h-2z"/><path d="m59 2h-54a3 3 0 0 0 -3 3v42a3 3 0 0 0 3 3h19.867l-.75 6h-1.117a1 1 0 0 0 -.8.4l-3 4a1 1 0 0 0 .8 1.6h24a1 1 0 0 0 .8-1.6l-3-4a1 1 0 0 0 -.8-.4h-1.117l-.75-6h19.867a3 3 0 0 0 3-3v-42a3 3 0 0 0 -3-3zm-54 2h54a1 1 0 0 1 1 1v37h-56v-37a1 1 0 0 1 1-1zm37 56h-20l1.5-2h17zm-4.133-4h-11.734l.75-6h10.234zm21.133-8h-54a1 1 0 0 1 -1-1v-3h56v3a1 1 0 0 1 -1 1z"/><path d="m57 30h-12a1 1 0 0 0 -1 1v8a1 1 0 0 0 1 1h12a1 1 0 0 0 1-1v-8a1 1 0 0 0 -1-1zm-1 8h-10v-6h10z"/><path d="m7 21h12a1 1 0 0 0 1-1v-13a1 1 0 0 0 -1-1h-12a1 1 0 0 0 -1 1v13a1 1 0 0 0 1 1zm1-13h10v11h-10z"/></g>
</svg>