<?xml version="1.0" encoding="iso-8859-1"?>
<!-- Generator: Adobe Illustrator 19.0.0, SVG Export Plug-In . SVG Version: 6.00 Build 0)  -->
<svg version="1.1" id="Capa_1" xmlns="http://www.w3.org/2000/svg" xmlns:xlink="http://www.w3.org/1999/xlink" x="0px" y="0px"
	 viewBox="0 0 512 512" style="enable-background:new 0 0 512 512;" xml:space="preserve"  width="40px" height="40px">
<g>
	<g>
		<path d="M456.725,390.649c-1.86-1.86-4.44-2.93-7.07-2.93c-2.63,0-5.21,1.07-7.07,2.93s-2.93,4.44-2.93,7.07s1.07,5.21,2.93,7.07
			c1.86,1.86,4.43,2.93,7.07,2.93c2.63,0,5.21-1.07,7.07-2.93c1.86-1.86,2.93-4.44,2.93-7.07S458.585,392.509,456.725,390.649z"/>
	</g>
</g>
<g>
	<g>
		<path d="M503.592,437.515l-21.057-21.057c-3.905-3.905-10.237-3.905-14.142,0s-3.905,10.237,0,14.142l21.057,21.057
			c1.628,1.628,2.525,3.793,2.525,6.096c0,2.302-0.897,4.467-2.525,6.096l-25.637,25.637c-3.362,3.36-8.831,3.362-12.191,0
			l-92.462-92.462l37.829-37.829l19.438,19.438c3.905,3.905,10.237,3.905,14.142,0c3.905-3.905,3.905-10.237,0-14.142
			l-26.509-26.508c-3.905-3.905-10.237-3.904-14.142,0l-4.383,4.383l-27.655-27.655c23.976-32.75,38.155-73.1,38.155-116.706
			C396.034,88.824,307.21,0,198.029,0S0.024,88.824,0.024,198.005S88.848,396.01,198.029,396.01
			c43.574,0,83.898-14.159,116.635-38.104l27.665,27.665l-4.383,4.383c-3.905,3.905-3.905,10.237,0,14.143l99.534,99.534
			c5.58,5.58,12.908,8.37,20.239,8.369c7.328-0.001,14.659-2.791,20.239-8.37l25.637-25.637c5.406-5.406,8.383-12.593,8.383-20.239
			S508.998,442.922,503.592,437.515z M198.028,376.008c-98.151,0-178.004-79.853-178.004-178.005S99.877,19.999,198.028,19.999
			s178.004,79.853,178.004,178.005S296.179,376.008,198.028,376.008z M330.276,345.234c5.233-4.706,10.215-9.684,14.923-14.915
			l26.19,26.19l-14.919,14.919L330.276,345.234z"/>
	</g>
</g>
<g>
	<g>
		<path d="M198.558,50.058l-0.529-0.001c-5.523,0-10,4.477-10,10s4.476,10,9.999,10l0.471,0.001c0.01,0,0.02,0,0.03,0
			c5.509,0,9.983-4.458,10-9.971C208.545,54.564,204.081,50.074,198.558,50.058z"/>
	</g>
</g>
<g>
	<g>
		<path d="M315.585,108.167c-19.241-25.144-46.516-43.76-76.8-52.421c-5.31-1.519-10.845,1.555-12.364,6.865
			c-1.519,5.31,1.555,10.845,6.865,12.364c54.574,15.607,92.689,66.2,92.689,123.029c0,34.789-13.962,66.373-36.571,89.46
			c0.398-1.079,0.627-2.24,0.627-3.458v-21.495c0-32.362-23.703-59.281-54.656-64.341c5.488-7.584,8.735-16.891,8.735-26.947
			v-60.091c0-5.523-4.477-10-10-10h-44.693c-20.661,0-37.469,16.808-37.469,37.469v32.623c0,10.056,3.247,19.362,8.735,26.947
			c-30.954,5.059-54.656,31.978-54.656,64.341v21.495c0,1.217,0.228,2.379,0.627,3.458c-22.608-23.088-36.571-54.671-36.571-89.46
			c0-56.364,36.126-105.471,89.893-122.195c5.273-1.641,8.219-7.246,6.579-12.519c-1.641-5.273-7.245-8.221-12.519-6.579
			c-29.491,9.173-55.968,27.914-74.557,52.769c-19.232,25.716-29.398,56.327-29.398,88.524c0,81.578,66.369,147.947,147.947,147.947
			s147.947-66.369,147.947-147.947C345.975,165.211,335.466,134.146,315.585,108.167z M198.029,197.304
			c-14.38,0-26.082-11.698-26.082-26.08v-7.082h41.332c3.81,0,7.458-0.699,10.83-1.969v9.05
			C224.11,185.604,212.409,197.304,198.029,197.304z M213.91,217.305l-15.882,15.882l-15.882-15.882H213.91z M171.946,138.602
			L171.946,138.602c0.001-9.632,7.837-17.468,17.469-17.468h34.693v12.179c0,5.972-4.858,10.83-10.83,10.83h-41.332V138.602z
			 M126.024,262.512h0.002c0-19.724,12.702-36.528,30.353-42.687l34.577,34.577c1.953,1.952,4.512,2.929,7.071,2.929
			c2.559,0,5.119-0.977,7.071-2.929l34.577-34.577c17.65,6.159,30.353,22.963,30.353,42.687v11.494H126.024V262.512z
			 M198.028,325.95c-32.596,0-62.378-12.259-84.994-32.4c0.945,0.296,1.95,0.456,2.992,0.456H280.03c1.042,0,2.047-0.16,2.992-0.456
			C260.406,313.692,230.624,325.95,198.028,325.95z"/>
	</g>
</g>
<g>
</g>
<g>
</g>
<g>
</g>
<g>
</g>
<g>
</g>
<g>
</g>
<g>
</g>
<g>
</g>
<g>
</g>
<g>
</g>
<g>
</g>
<g>
</g>
<g>
</g>
<g>
</g>
<g>
</g>
</svg>
