<?xml version="1.0"?>
<svg xmlns="http://www.w3.org/2000/svg" xmlns:xlink="http://www.w3.org/1999/xlink" version="1.1" id="Capa_1" x="0px" y="0px" viewBox="0 0 512 512" style="enable-background:new 0 0 512 512;" xml:space="preserve" width="30px" height="30px" class=""><g><g>
	<g>
		<path d="M438,0H74C57.458,0,44,13.458,44,30v452c0,16.542,13.458,30,30,30h364c16.542,0,30-13.458,30-30V30    C468,13.458,454.542,0,438,0z M377,35.436l55.691,55.691H387c-5.514,0-10-4.486-10-10V35.436z M448,482c0,5.514-4.486,10-10,10H74    c-5.514,0-10-4.486-10-10V30c0-5.514,4.486-10,10-10h283v61.127c0,16.542,13.458,30,30,30h61V482z M448,78.151L389.849,20H438    c5.514,0,10,4.486,10,10V78.151z" data-original="#000000" class="active-path" data-old_color="#000000" fill="#B40D4A"/>
	</g>
</g><g>
	<g>
		<path d="M384.941,438H128c-5.523,0-10,4.477-10,10s4.477,10,10,10h256.941c5.523,0,10-4.477,10-10S390.464,438,384.941,438z" data-original="#000000" class="active-path" data-old_color="#000000" fill="#B40D4A"/>
	</g>
</g><g>
	<g>
		<path d="M384.941,382H169c-5.523,0-10,4.477-10,10s4.477,10,10,10h215.941c5.523,0,10-4.477,10-10S390.464,382,384.941,382z" data-original="#000000" class="active-path" data-old_color="#000000" fill="#B40D4A"/>
	</g>
</g><g>
	<g>
		<path d="M384.941,326H127.059c-5.523,0-10,4.477-10,10s4.477,10,10,10h257.883c5.523,0,10-4.477,10-10S390.464,326,384.941,326z" data-original="#000000" class="active-path" data-old_color="#000000" fill="#B40D4A"/>
	</g>
</g><g>
	<g>
		<path d="M134.13,272.93c-1.86-1.86-4.44-2.93-7.07-2.93s-5.21,1.07-7.07,2.93c-1.86,1.86-2.93,4.44-2.93,7.07s1.07,5.21,2.93,7.07    c1.86,1.86,4.44,2.93,7.07,2.93s5.21-1.07,7.07-2.93s2.93-4.44,2.93-7.07S135.99,274.79,134.13,272.93z" data-original="#000000" class="active-path" data-old_color="#000000" fill="#B40D4A"/>
	</g>
</g><g>
	<g>
		<path d="M134.13,384.93c-1.86-1.86-4.44-2.93-7.07-2.93s-5.21,1.07-7.07,2.93c-1.86,1.86-2.93,4.44-2.93,7.07s1.07,5.21,2.93,7.07    c1.86,1.86,4.44,2.93,7.07,2.93s5.21-1.07,7.07-2.93s2.93-4.44,2.93-7.07S135.99,386.79,134.13,384.93z" data-original="#000000" class="active-path" data-old_color="#000000" fill="#B40D4A"/>
	</g>
</g><g>
	<g>
		<path d="M384.941,270H169c-5.523,0-10,4.477-10,10s4.477,10,10,10h215.941c5.523,0,10-4.477,10-10S390.464,270,384.941,270z" data-original="#000000" class="active-path" data-old_color="#000000" fill="#B40D4A"/>
	</g>
</g><g>
	<g>
		<path d="M200.247,120h-42.523c-5.523,0-10,4.477-10,10s4.477,10,10,10h11.262v53.195c0,6.21-5.052,11.262-11.262,11.262    c-6.21,0-11.262-5.052-11.262-11.262c0-5.523-4.477-10-10-10c-5.523,0-10,4.477-10,10c-0.001,17.238,14.023,31.262,31.261,31.262    c17.238,0,31.262-14.024,31.262-31.262V140h11.262c5.523,0,10-4.477,10-10S205.77,120,200.247,120z" data-original="#000000" class="active-path" data-old_color="#000000" fill="#B40D4A"/>
	</g>
</g><g>
	<g>
		<path d="M258.533,120c-28.799,0-52.228,23.429-52.228,52.228c0,28.799,23.429,52.229,52.228,52.229s52.228-23.43,52.228-52.229    S287.332,120,258.533,120z M258.533,204.457c-17.77,0-32.228-14.458-32.228-32.229c0-17.77,14.458-32.228,32.228-32.228    c17.771,0,32.228,14.458,32.228,32.228C290.761,189.999,276.303,204.457,258.533,204.457z" data-original="#000000" class="active-path" data-old_color="#000000" fill="#B40D4A"/>
	</g>
</g><g>
	<g>
		<path d="M385.523,152c0-17.645-14.355-32-32-32H333c-5.523,0-10,4.477-10,10v44v44c0,5.523,4.477,10,10,10h20.523    c17.645,0,32-14.355,32-32c0-8.517-3.351-16.26-8.795-22C382.172,168.26,385.523,160.517,385.523,152z M353.523,208H343v-24    h10.523c6.617,0,12,5.383,12,12S360.14,208,353.523,208z M353.523,164H343v-24h10.523c6.617,0,12,5.383,12,12    S360.14,164,353.523,164z" data-original="#000000" class="active-path" data-old_color="#000000" fill="#B40D4A"/>
	</g>
</g></g> </svg>
