<?xml version="1.0"?>
<svg xmlns="http://www.w3.org/2000/svg" id="Layer_1" data-name="Layer 1" viewBox="0 0 512 512" width="512" height="512"><title>HR Management</title><path d="M101.549,397.535a42.348,42.348,0,0,0,6-84.3V255.569h296.9v57.669a42.547,42.547,0,1,0,12,0V251.993c0-4.724-3.315-8.424-7.546-8.424H262v-51.3h63.322a6,6,0,0,0,6-6V146.336c0-28.192-22.591-51.144-50.411-51.286H229.883c-27.94,0-50.672,23.007-50.672,51.287v39.936a6,6,0,0,0,6,6H250v51.3H104a8.445,8.445,0,0,0-8.448,8.424v61.245a42.348,42.348,0,0,0,6,84.3ZM441,355.172a30.548,30.548,0,1,1-30.547-30.363A30.49,30.49,0,0,1,441,355.172ZM255.267,134.839l5.307,23.274-5.4,5.935-5.227-5.89Zm1.863-27.79-1.863,8.395-1.863-8.395Zm-65.919,39.287c0-21.663,17.348-39.287,38.672-39.287h11.229l3.273,14.75c.01.046.021.092.032.138a7.943,7.943,0,0,0,.964,2.279L237.564,158.5a6,6,0,0,0,1.362,5.317l11.709,13.192a6,6,0,0,0,4.451,2.017h.037a6,6,0,0,0,4.439-1.963l12-13.193a6,6,0,0,0,1.41-5.37l-7.817-34.283a7.915,7.915,0,0,0,.964-2.279c.011-.046.022-.092.032-.138l3.274-14.75H280.65c21.324,0,38.672,17.624,38.672,39.287v33.936H191.211ZM101.549,324.809A30.364,30.364,0,1,1,71,355.172,30.49,30.49,0,0,1,101.549,324.809Z"/><path d="M41,502H162.1a6,6,0,0,0,6-6V463.991a55.548,55.548,0,0,0-55.485-55.486H90.486A55.549,55.549,0,0,0,35,463.991V496A6,6,0,0,0,41,502Zm6-38.009a43.536,43.536,0,0,1,43.486-43.486h22.127A43.535,43.535,0,0,1,156.1,463.991V490H47Z"/><path d="M399.387,408.505A55.548,55.548,0,0,0,343.9,463.991V496a6,6,0,0,0,6,6H471a6,6,0,0,0,6-6V463.991a55.548,55.548,0,0,0-55.486-55.486ZM465,463.991V490H355.9V463.991a43.535,43.535,0,0,1,43.485-43.486h22.127A43.535,43.535,0,0,1,465,463.991Z"/><path d="M286.58,142.745h17.985a6,6,0,0,0,0-12H286.58a6,6,0,0,0,0,12Z"/><path d="M255.267,92.566c22.5,0,40.8-18.52,40.8-41.283S277.766,10,255.267,10s-40.805,18.519-40.805,41.283S232.767,92.566,255.267,92.566Zm0-70.566c15.883,0,28.8,13.136,28.8,29.283s-12.921,29.283-28.8,29.283S226.462,67.43,226.462,51.283,239.384,22,255.267,22Z"/></svg>
